<?xml version="1.0" encoding="UTF-8"?>
<svg width="108px" height="24px" viewBox="0 0 108 24" version="1.1" xmlns="http://www.w3.org/2000/svg" xmlns:xlink="http://www.w3.org/1999/xlink">
    <title>kraken</title>
    <g id="Page-1" stroke="none" stroke-width="1" fill="none" fill-rule="evenodd">
        <path d="M2.325187,23.902965 C2.9991543,23.902965 3.5523691,23.6846361 3.9848314,23.2479784 C4.4172937,22.8113208 4.6335249,22.2695418 4.6335249,21.6226415 L4.6335249,21.6226415 L4.6335249,16.884097 L5.0884528,16.884097 C5.6950233,16.884097 6.2454299,17.1374663 6.7396726,17.6442049 L6.7396726,17.6442049 L12.0134664,23.1105121 C12.4740107,23.6172507 13.0637321,23.8706199 13.7826305,23.8706199 C14.4565977,23.8706199 15.0070043,23.6495957 15.4338502,23.2075472 C15.8831618,22.7439353 16.1078175,22.2264151 16.1078175,21.6549865 C16.1078175,21.0404313 15.8606962,20.4797844 15.3664535,19.9730458 L15.3664535,19.9730458 L10.0421122,14.6684636 L15.5349453,9.4609164 C15.8382306,9.1698113 16.0235716,8.8086253 16.0909683,8.3773585 C16.1134339,8.2479784 16.1246667,8.1239892 16.1246667,8.0053908 C16.1134339,7.7142857 16.05727,7.4393531 15.9561749,7.180593 C15.7989158,6.8140162 15.5405617,6.4959569 15.1811125,6.2264151 C14.8104305,5.9568733 14.3779682,5.8221024 13.8837256,5.8221024 C13.1985255,5.8221024 12.5975714,6.0862534 12.0808631,6.6145553 L12.0808631,6.6145553 L6.7396726,11.9191375 C6.2117316,12.425876 5.633243,12.6792453 5.0042069,12.6792453 L5.0042069,12.6792453 L4.6335249,12.6792453 L4.6335249,2.2803235 C4.6335249,1.6334232 4.4088692,1.0916442 3.9595577,0.6549865 C3.5102461,0.2183288 2.9654559,0 2.325187,0 C1.6849181,0 1.1373198,0.2183288 0.6823919,0.6549865 C0.227464,1.0916442 -7.10542736e-15,1.6334232 -7.10542736e-15,2.2803235 L-7.10542736e-15,2.2803235 L-7.10542736e-15,21.6226415 C-7.10542736e-15,22.2371968 0.2302721,22.7708895 0.6908164,23.2237197 C1.1513607,23.6765499 1.6961509,23.902965 2.325187,23.902965 Z M21.6303285,23.902965 C22.2818302,23.902965 22.8322368,23.6873315 23.2815483,23.2560647 C23.7308598,22.8247978 23.9555156,22.2911051 23.9555156,21.6549865 L23.9555156,21.6549865 L23.9555156,12.2749326 C23.9555156,10.8733154 24.5508533,10.1563342 25.7415288,10.1239892 L25.7415288,10.1239892 L25.8257747,10.1239892 C26.0953616,10.1239892 26.5390567,10.1725067 27.1568601,10.2695418 C27.8308273,10.3773585 28.2239749,10.4312668 28.3363028,10.4312668 C28.9765717,10.4312668 29.4988963,10.2183288 29.9032766,9.7924528 C30.307657,9.3665768 30.5098472,8.884097 30.5098472,8.3450135 C30.5098472,7.1913747 29.7965652,6.425876 28.3700011,6.0485175 C27.5949388,5.8760108 26.6064535,5.7897574 25.4045452,5.7897574 C23.4725057,5.7897574 21.9757367,6.2938005 20.9142383,7.3018868 C19.8527399,8.309973 19.3219907,9.6927224 19.3219907,11.4501348 L19.3219907,11.4501348 L19.3219907,21.6549865 C19.3219907,22.2695418 19.5466464,22.7978437 19.9959579,23.2398922 C20.4452694,23.6819407 20.9900596,23.902965 21.6303285,23.902965 Z M39.8739716,24 C42.8955915,24 45.32749,23.3962264 47.1696672,22.1886792 C47.7200738,21.8221024 47.9952771,21.2991914 47.9952771,20.6199461 L47.9952771,20.6199461 L47.9952771,12.5175202 C47.9952771,8.032345 45.4510506,5.7897574 40.3625978,5.7897574 C38.2957649,5.7897574 36.6052304,6.06469 35.2909942,6.6145553 C34.2800433,7.0242588 33.7745679,7.6981132 33.7745679,8.6361186 C33.7745679,9.3692722 34.0666204,9.9083558 34.6507253,10.2533693 C34.9652434,10.4474394 35.3471581,10.5498652 35.7964697,10.5606469 C36.1446861,10.5606469 36.5266008,10.4959569 36.942214,10.3665768 C38.1778206,9.9892183 39.2842502,9.8005391 40.2615027,9.8005391 C41.4184799,9.8005391 42.2525144,10.0080863 42.7636062,10.4231806 C43.274698,10.8382749 43.530244,11.4932615 43.530244,12.3881402 L43.530244,12.3881402 L43.530244,13.277628 C42.0362832,12.9433962 40.7613618,12.7762803 39.7054798,12.7762803 C37.3915255,12.7762803 35.6279778,13.2749326 34.4148368,14.2722372 C33.2016957,15.2695418 32.5951252,16.5714286 32.5951252,18.1778976 C32.5951252,19.902965 33.2325859,21.3045822 34.5075073,22.3827493 C35.7824287,23.4609164 37.5712501,24 39.8739716,24 Z M40.194106,20.2318059 C39.2168535,20.2318059 38.4530239,20.0377358 37.9026173,19.6495957 C37.3522107,19.2614555 37.0770074,18.7169811 37.0770074,18.0161725 C37.0770074,17.3692722 37.3494025,16.8490566 37.8941927,16.4555256 C38.4389829,16.0619946 39.1719223,15.8652291 40.0930109,15.8652291 C41.2275225,15.8652291 42.3732668,16.0377358 43.530244,16.3827493 L43.530244,16.3827493 L43.530244,19.3746631 C42.5979226,19.9460916 41.4858766,20.2318059 40.194106,20.2318059 Z M55.185857,23.902965 C55.8598243,23.902965 56.4130391,23.6846361 56.8455014,23.2479784 C57.2779637,22.8113208 57.4941949,22.2695418 57.4941949,21.6226415 L57.4941949,21.6226415 L57.4941949,16.884097 L57.9491228,16.884097 C58.5556933,16.884097 59.1060999,17.1374663 59.6003426,17.6442049 L59.6003426,17.6442049 L64.8741364,23.1105121 C65.3346807,23.6172507 65.924402,23.8706199 66.6433005,23.8706199 C67.3172677,23.8706199 67.8676743,23.6495957 68.2945202,23.2075472 C68.7438317,22.7439353 68.9684875,22.2264151 68.9684875,21.6549865 C68.9684875,21.0404313 68.7213662,20.4797844 68.2271235,19.9730458 L68.2271235,19.9730458 L62.9027822,14.6684636 L68.3956153,9.4609164 C68.6989006,9.1698113 68.8842416,8.8086253 68.9516383,8.3773585 C68.9741039,8.2479784 68.9853367,8.1239892 68.9853367,8.0053908 C68.9741039,7.7142857 68.91794,7.4393531 68.8168449,7.180593 C68.6595858,6.8140162 68.4012317,6.4959569 68.0417825,6.2264151 C67.6711005,5.9568733 67.2386382,5.8221024 66.7443955,5.8221024 C66.0591955,5.8221024 65.4582414,6.0862534 64.9415331,6.6145553 L64.9415331,6.6145553 L59.6003426,11.9191375 C59.0724016,12.425876 58.493913,12.6792453 57.8648769,12.6792453 L57.8648769,12.6792453 L57.4941949,12.6792453 L57.4941949,2.2803235 C57.4941949,1.6334232 57.2695392,1.0916442 56.8202276,0.6549865 C56.3709161,0.2183288 55.8261259,0 55.185857,0 C54.5455881,0 53.9979897,0.2183288 53.5430618,0.6549865 C53.0881339,1.0916442 52.86067,1.6334232 52.86067,2.2803235 L52.86067,2.2803235 L52.86067,21.6226415 C52.86067,22.2371968 53.0909421,22.7708895 53.5514864,23.2237197 C54.0120307,23.6765499 54.5568209,23.902965 55.185857,23.902965 Z M80.21972,24 C82.657235,24 84.555576,23.6172507 85.914744,22.851752 C86.701039,22.4204852 87.094186,21.8005391 87.094186,20.9919137 C87.094186,20.2911051 86.790901,19.7466307 86.18433,19.3584906 C85.847347,19.1428571 85.476665,19.0350404 85.072284,19.0350404 C84.757766,19.0350404 84.420783,19.0997305 84.061334,19.2291105 C82.724632,19.7250674 81.494642,19.9730458 80.371363,19.9730458 C79.169455,19.9730458 78.203435,19.6873315 77.473304,19.115903 C76.743172,18.5444744 76.378107,17.7574124 76.378107,16.754717 L76.378107,16.754717 L76.378107,16.4150943 L85.57776,16.4150943 C87.161583,16.4150943 87.953495,15.6765499 87.953495,14.1994609 L87.953495,14.1994609 L87.953495,13.4716981 C87.953495,11.1536388 87.22898,9.2991914 85.77995,7.9083558 C84.342153,6.4959569 82.432579,5.7897574 80.051228,5.7897574 C77.770973,5.7897574 75.895097,6.4312668 74.423602,7.7142857 C72.952107,8.9973046 72.115264,10.7061995 71.913074,12.8409704 C71.85691,13.5956873 71.831636,14.3180593 71.837252,15.0080863 C71.842869,15.6981132 71.868143,16.3557951 71.913074,16.9811321 C72.081566,19.0727763 72.918408,20.7762803 74.423602,22.0916442 C75.917563,23.3638814 77.849602,24 80.21972,24 Z M83.134629,13.4070081 L76.378107,13.4070081 C76.378107,12.2210243 76.695433,11.296496 77.330086,10.6334232 C77.964738,9.9703504 78.871786,9.638814 80.051228,9.638814 C81.152042,9.638814 82.016966,9.9460916 82.646002,10.5606469 C83.218875,11.1212938 83.505311,11.8544474 83.505311,12.7601078 L83.505311,12.7601078 L83.505311,13.0026954 C83.505311,13.2722372 83.38175,13.4070081 83.134629,13.4070081 L83.134629,13.4070081 Z M105.674813,23.902965 C106.34878,23.902965 106.904803,23.6846361 107.342882,23.2479784 C107.780961,22.8113208 108,22.2695418 108,21.6226415 L108,21.6226415 L108,13.0350404 C108,10.6846361 107.334457,8.8894879 106.003372,7.6495957 C104.672287,6.4097035 102.726206,5.7897574 100.165131,5.7897574 C98.615006,5.7897574 97.196866,5.9649596 95.910712,6.3153639 C94.624558,6.6657682 93.599566,7.0997305 92.835737,7.6172507 C92.28533,7.9838275 92.010127,8.5229111 92.010127,9.2345013 L92.010127,9.2345013 L92.010127,21.6226415 C92.010127,22.2371968 92.240399,22.7708895 92.700943,23.2237197 C93.161487,23.6765499 93.706278,23.902965 94.335314,23.902965 C95.009281,23.902965 95.562496,23.6846361 95.994958,23.2479784 C96.427421,22.8113208 96.643652,22.2695418 96.643652,21.6226415 L96.643652,21.6226415 L96.643652,10.916442 C97.497344,10.3881402 98.620622,10.1239892 100.013488,10.1239892 C101.013206,10.1239892 101.821967,10.3989218 102.43977,10.9487871 C103.057573,11.4986523 103.366475,12.2641509 103.366475,13.245283 L103.366475,13.245283 L103.366475,21.6226415 C103.366475,22.2371968 103.596747,22.7708895 104.057292,23.2237197 C104.517836,23.6765499 105.05701,23.902965 105.674813,23.902965 Z" id="kraken" fill="#000000" fill-rule="nonzero"></path>
    </g>
</svg>